Patient4_TMGait_0pt7_01_left_05_EMG.mot
version=1
nRows=20
nColumns=33
inDegrees=no
endheader
time	1LAddLong	2LGlutMax	3LGlutMed	4LIliopsoas	5LSemiMemb	6LBicFemLong	7LRecFem	8LVastMed	9LVastLat	10LGasMed	11LTibAnt	12lTibPost	13LPeroneusLong	14LSol	15LExtDigLong	16LFlexDigLong	17RAddLong	18RGlutMax	19RGlutMed	20RIliopsoas	21RSemiMemb	22RBicFemLong	23RRecFem	24RVastMed	25RVastLat	26RGasMed	27RTibAnt	28RTibPost	29RPeroneusLong	30RSol	31RExtDigLong	32RFlexDigLong
6.195	0.013123	0.9584	0.077209	0.004883	-0.049591	0.029602	0.070953	0.038452	-0.34637	-0.036011	0.057983	0.032654	-0.027618	-0.33386	-0.071564	0.53528	0.022583	-0.24521	-0.55191	-0.11475	-0.11169	-0.31204	0.63583	-0.045929	-0.084229	0.003204	-0.71304	-0.004425	0.16678	0.1062	-0.004425	-0.033875
6.196	0.006561	1.0832	0.19379	0.005646	-0.055084	0.0177	0.050354	0.038757	-0.2919	-0.057983	0.054932	0.024567	-0.050507	-0.16113	-0.083771	-0.093536	-0.020447	-0.26276	-0.6015	-0.096741	-0.13718	-0.28809	0.47516	-0.066376	-0.088806	-0.000153	-1.0599	-0.005493	0.052338	0.037384	-0.00351	-0.048828
6.197	0.010376	1.1572	0.37506	-0.006561	-0.088501	-0.056763	-0.028687	0.002899	-0.28763	-0.079956	0.07782	0.02655	-0.046082	-0.16342	-0.050812	0.19333	-0.011597	-0.26108	-0.52521	-0.023651	-0.10223	-0.32867	0.53574	-0.074615	-0.085144	-0.000153	-0.72571	-0.001678	-0.032196	-0.09491	0.000916	-0.054626
6.198	0.013275	1.2105	0.47119	0.008392	-0.070496	-0.11322	-0.10407	-0.010834	-0.31952	-0.071869	0.055237	0.027466	-0.006714	-0.23086	-0.036163	-0.40558	0.04303	-0.2475	-0.52307	-0.005951	-0.05127	-0.43549	0.61539	-0.057068	-0.094757	0.005646	-0.039673	-0.003204	0.015106	-0.29327	-0.000916	-0.056763
6.199	0.018158	1.2369	0.36407	0.019073	-0.057983	-0.024719	-0.1738	-0.011749	-0.39688	-0.061188	0.001984	0.026398	0.013885	-0.16007	0.59082	-0.12665	0.074615	-0.18372	-0.52307	-0.018616	-0.04837	-0.51361	0.77972	-0.12085	-0.089722	0.007324	0.79193	0.000458	-0.065308	-0.34149	0.00061	-0.054169
6.2	0.011139	1.2459	0.28748	0.010986	-0.071106	0.15213	-0.18616	0.001984	-0.41412	-0.045929	-0.005798	0.040894	0.000763	-0.25986	0.2066	-0.034943	0.16556	-0.11887	-0.49454	0.05188	-0.13473	-0.54657	0.85693	-0.12222	-0.0737	0.008698	1.1166	0.002289	-0.16632	-0.34134	-0.000458	-0.045166
6.201	0.01236	1.2617	0.12894	-0.003967	-0.025482	0.24094	-0.19898	0.003204	-0.39002	-0.028992	-0.005646	0.035248	-0.013428	-0.32684	0.49911	0.01358	0.15335	0.041199	-0.33417	0.084839	-0.19501	-0.48035	0.979	-0.10239	-0.063324	0.006256	0.61462	0.000458	-0.17014	-0.31525	0.001526	-0.048065
6.202	0.022888	1.2546	-0.009155	0.010681	0.034943	0.35019	-0.24216	0.005341	-0.31479	0.007172	0.14496	0.032654	-0.043793	-0.20157	-0.052032	0.14099	0.11993	0.1741	-0.045319	0.09964	-0.20264	-0.49652	1.0835	-0.003815	-0.036316	0.010681	0.062256	-0.000305	0.013733	-0.23758	-0.002594	-0.049744
6.203	0.022888	1.1328	-0.081635	0.004272	-0.003662	0.56381	-0.26016	0.010986	-0.25116	-0.018463	0.26154	0.038452	-0.031738	-0.032196	-0.073547	-0.1178	0.11856	0.27664	-0.004578	0.13428	-0.21469	-0.48614	0.89249	0.006561	0	0.010834	-0.52673	-0.002594	0.16068	0.015717	-0.001984	-0.049133
6.204	0.012817	1.0449	-0.05249	0	-0.024109	0.54077	-0.31632	0.015259	-0.16022	-0.059357	0.14099	0.045624	0.10025	0.15533	-0.17151	-0.084534	0.10925	0.37415	-0.45883	0.22934	-0.22995	-0.38162	0.68283	-0.046082	-0.014954	0.003204	-0.48309	0.002747	0.031281	0.25742	-0.001373	-0.052185
6.205	0.014343	0.99701	-0.15579	0.006104	-0.058594	0.29572	-0.35126	0.005798	-0.10529	-0.022278	-0.06897	0.043488	0.12405	0.24338	-0.15045	-0.069733	0.062256	0.53772	-0.85251	0.18433	-0.23224	-0.25513	0.65597	-0.066986	-0.023651	0.002899	-0.15442	-0.001373	-0.092621	0.17731	-0.003204	-0.05188
6.206	0.019226	0.99289	-0.1088	0.000458	-0.093536	-0.16312	-0.40695	-0.001373	-0.082245	0.022736	0.024414	0.038147	-0.029755	0.24338	-0.42816	-0.044708	0.027618	0.62241	-0.78095	0.088196	-0.22522	-0.35233	0.56183	-0.15503	-0.030518	0.009003	-0.16342	-0.002136	0.0177	0.017548	-0.00351	-0.048523
6.207	0.03418	1.0971	0.001526	0.009155	-0.069885	-0.36575	-0.41138	-0.004425	-0.024109	0.024872	0.12024	0.036621	-0.037079	0.13138	-0.49301	-0.028076	-0.034943	0.75378	-0.76889	0.047913	-0.18555	-0.448	0.60074	-0.053864	0.010681	0.011902	-0.28793	-0.006714	0.10101	0.068359	0	-0.057831
6.208	0.036011	1.198	-0.019989	0.003357	0.032501	-0.40619	-0.40253	-0.016174	0.039368	0.009766	0.042419	0.036774	-0.03418	0.007935	-0.4364	-0.018311	-0.085602	0.9111	-0.55283	-0.077057	-0.12207	-0.34851	0.70374	0	-0.002747	0.005951	-0.18402	-0.001984	0.025635	0.13626	0.000305	-0.059204
6.209	0.041962	1.2093	-0.065155	0.016479	0.048218	-0.3479	-0.37491	-0.022583	0.076294	-0.010529	-0.14358	0.028381	0.001984	-0.082397	-0.37476	-0.016785	-0.069122	1.0291	-0.48798	-0.076294	-0.051727	-0.27557	0.80582	0.004578	-0.014191	0.003815	0.019836	-0.002441	-0.005493	0.11353	-0.001068	-0.053711
6.21	0.034485	1.2503	-0.002899	0.006409	0.034485	-0.23346	-0.36606	-0.02243	0.07782	-0.020447	-0.1857	0.033875	-0.000763	-0.10315	-0.20859	-0.01709	-0.11688	1.1421	-0.35599	-0.030365	0.011902	-0.37521	0.72266	0.046234	0.011902	0.005188	0.055389	-0.003815	-0.061798	0.081787	-0.00061	-0.060272
6.211	0.020447	1.4575	-0.032349	0.005341	0.014191	-0.12466	-0.33157	-0.019836	0.080261	-0.007019	0.015259	0.014954	-0.031586	-0.085144	0.026398	-0.011139	-0.067444	1.2134	-0.3125	0.22095	0.076752	-0.40695	0.69473	0.1059	0.033112	0.002441	0.14908	0.009766	-0.10208	0.017548	0	-0.059814
6.212	0.003967	1.5306	0.013275	0.01358	-0.015869	0.018158	-0.37979	-0.009918	0.005341	0.005341	0.050201	0.019073	0.000763	-0.050507	0.067749	0.00824	0.002441	1.2489	0.080566	0.2945	0.068512	-0.52917	0.89813	0.18082	0.031891	0.004272	0.10071	0.001526	-0.099335	-0.025635	0.000305	-0.049133
6.213	0.005341	1.7163	0.054474	0.010529	-0.065308	0.10101	-0.47195	-0.00885	-0.010071	0.03006	-0.003815	0.015411	-0.028534	0.052338	0.082855	0.002594	0.028992	1.3936	-0.12192	0.27786	-0.00351	-0.57205	1.0565	0.23331	-0.006409	0.006714	0.14236	0.000153	-0.030365	-0.041351	-0.000916	-0.06134
6.214	0.016022	1.8561	0.11887	0.009155	-0.08255	-0.077362	-0.44983	0.032501	-0.011902	0.014648	-0.065613	0.01358	-0.09491	0.040131	-0.052338	0.010529	0.087128	1.4725	-0.55374	0.15884	-0.059052	-0.62943	1.0263	0.14526	-0.010834	0.007629	-0.003662	-0.000763	0.003662	-0.12726	-0.001678	-0.061188
